<svg width="401" height="94" viewBox="0 0 401 94" fill="none" xmlns="http://www.w3.org/2000/svg">
<path d="M101.489 41.9234C101.489 69.8199 79.0691 92.4386 51.4182 92.4386C23.7673 92.4386 1.34375 69.8199 1.34375 41.9234C1.34375 25.4286 9.17869 10.7826 21.3028 1.55859C29.7698 7.73062 40.1726 11.3641 51.4182 11.3641C62.6638 11.3641 73.0627 7.72661 81.5297 1.55859C93.6498 10.7785 101.489 25.4286 101.489 41.9234Z" fill="#FF5126"/>
<path d="M30.5989 58.3235C39.6066 58.3235 46.9088 50.9565 46.9088 41.8688C46.9088 32.7811 39.6066 25.4141 30.5989 25.4141C21.5912 25.4141 14.2891 32.7811 14.2891 41.8688C14.2891 50.9565 21.5912 58.3235 30.5989 58.3235Z" fill="#FBFBFB"/>
<path d="M30.6026 49.2055C34.6201 49.2055 37.877 45.9197 37.877 41.8664C37.877 37.8132 34.6201 34.5273 30.6026 34.5273C26.585 34.5273 23.3281 37.8132 23.3281 41.8664C23.3281 45.9197 26.585 49.2055 30.6026 49.2055Z" fill="#EC1C24"/>
<path d="M73.0052 58.3235C82.0129 58.3235 89.3151 50.9565 89.3151 41.8688C89.3151 32.7811 82.0129 25.4141 73.0052 25.4141C63.9975 25.4141 56.6953 32.7811 56.6953 41.8688C56.6953 50.9565 63.9975 58.3235 73.0052 58.3235Z" fill="#FBFBFB"/>
<path d="M73.001 49.2055C77.0186 49.2055 80.2755 45.9197 80.2755 41.8664C80.2755 37.8132 77.0186 34.5273 73.001 34.5273C68.9835 34.5273 65.7266 37.8132 65.7266 41.8664C65.7266 45.9197 68.9835 49.2055 73.001 49.2055Z" fill="#EC1C24"/>
<path d="M51.4142 56.4564L44.3281 63.6055L51.4142 70.7545L58.5003 63.6055L51.4142 56.4564Z" fill="#FBFBFB"/>
<path d="M30.5989 58.3235C39.6066 58.3235 46.9088 50.9565 46.9088 41.8688C46.9088 32.7811 39.6066 25.4141 30.5989 25.4141C21.5912 25.4141 14.2891 32.7811 14.2891 41.8688C14.2891 50.9565 21.5912 58.3235 30.5989 58.3235Z" fill="#FBFBFB"/>
<path d="M30.6026 49.2094C34.6201 49.2094 37.877 45.9236 37.877 41.8703C37.877 37.8171 34.6201 34.5312 30.6026 34.5312C26.585 34.5312 23.3281 37.8171 23.3281 41.8703C23.3281 45.9236 26.585 49.2094 30.6026 49.2094Z" fill="#F96167"/>
<path d="M73.0052 58.3235C82.0129 58.3235 89.3151 50.9565 89.3151 41.8688C89.3151 32.7811 82.0129 25.4141 73.0052 25.4141C63.9975 25.4141 56.6953 32.7811 56.6953 41.8688C56.6953 50.9565 63.9975 58.3235 73.0052 58.3235Z" fill="#FBFBFB"/>
<path d="M73.001 49.2094C77.0186 49.2094 80.2755 45.9236 80.2755 41.8703C80.2755 37.8171 77.0186 34.5312 73.001 34.5312C68.9835 34.5312 65.7266 37.8171 65.7266 41.8703C65.7266 45.9236 68.9835 49.2094 73.001 49.2094Z" fill="#F96167"/>
<path d="M51.4142 56.4564L44.3281 63.6055L51.4142 70.7545L58.5003 63.6055L51.4142 56.4564Z" fill="#FBFBFB"/>
<path d="M151.281 15.1719H167.13L188.56 69.517H171.892L168.096 58.4082H149.644L145.7 69.517H129.852L151.281 15.1719ZM164.153 47.0025L162.368 41.8211C161.326 38.7451 160.062 34.9914 159.096 31.6868H158.949C157.908 35.0635 156.644 38.8173 155.527 41.9695L153.742 46.9985H164.157L164.153 47.0025Z" fill="white"/>
<path d="M215.124 67.644L214.977 67.5678C212.521 69.4446 209.321 70.347 206.196 70.347C197.415 70.347 189.453 63.2165 189.453 51.5822C189.453 39.948 198.008 31.1652 208.724 31.1652C210.883 31.1652 212.966 31.6144 214.675 32.2921L214.826 32.2159V12.1719H229.558V69.5208H215.124V67.644ZM214.826 57.7342V44.0747C213.785 43.5494 212.668 43.2486 211.106 43.2486C206.343 43.2486 204.336 46.9261 204.336 50.9807C204.336 55.4844 206.494 58.8611 210.732 58.8611C212.37 58.8611 213.781 58.3358 214.826 57.7342Z" fill="white"/>
<path d="M235.289 50.751C235.289 39.7184 244.142 31.1602 256.421 31.1602C268.7 31.1602 277.552 39.7184 277.552 50.751C277.552 61.7837 268.7 70.3419 256.421 70.3419C244.142 70.3419 235.289 61.7837 235.289 50.751ZM262.968 50.751C262.968 46.6965 260.213 43.5443 256.421 43.5443C252.628 43.5443 249.874 46.6965 249.874 50.751C249.874 54.8056 252.628 57.9578 256.421 57.9578C260.213 57.9578 262.968 54.8056 262.968 50.751Z" fill="white"/>
<path d="M278.445 31.9883H293.4L295.852 40.5465C296.969 44.4486 297.935 48.054 298.83 51.6554H298.977C299.796 48.1262 300.69 44.4486 301.731 40.5465L304.037 31.9883H315.271L317.576 40.5465C318.618 44.4486 319.512 47.9778 320.331 51.6554H320.478C321.373 47.9778 322.414 44.2241 323.455 40.5465L325.912 31.9883H339.749L327.323 69.5218H314.007L312.369 63.5182C311.327 59.616 310.21 55.2607 309.32 51.507H309.173C308.279 55.2607 307.237 59.5398 306.124 63.5182L304.486 69.5218H290.796L278.445 31.9883Z" fill="white"/>
<path d="M343.555 12.1719H358.286V69.5208H343.555V12.1719Z" fill="white"/>
<path d="M363.13 69.5217L363.055 69.3733L377.635 43.851L377.56 43.7026H364.764V31.9922H399.586L399.661 32.1406L385.081 57.6629L385.156 57.8113H399.22V69.5217H363.134H363.13Z" fill="white"/>
</svg>
